<mxfile host="65bd71144e">
    <diagram name="Page-1" id="Es02p8DRjkub2hjDWlHL">
        <mxGraphModel dx="3323" dy="2364" grid="1" gridSize="10" guides="1" tooltips="1" connect="1" arrows="1" fold="1" page="1" pageScale="1" pageWidth="827" pageHeight="1169" math="0" shadow="0">
            <root>
                <mxCell id="0"/>
                <mxCell id="1" parent="0"/>
                <mxCell id="35" value="" style="rounded=0;whiteSpace=wrap;html=1;fillColor=#f8cecc;strokeColor=#b85450;" parent="1" vertex="1">
                    <mxGeometry x="-1097" y="-60" width="160" height="250" as="geometry"/>
                </mxCell>
                <mxCell id="geomr1CJVptTWvtlSGP4-65" value="ED SaaS or Local" style="swimlane;horizontal=0;whiteSpace=wrap;html=1;" parent="1" vertex="1">
                    <mxGeometry x="-1150" y="-170" width="360" height="190" as="geometry"/>
                </mxCell>
                <mxCell id="geomr1CJVptTWvtlSGP4-73" value="Orion-LD" style="rounded=1;whiteSpace=wrap;html=1;" parent="geomr1CJVptTWvtlSGP4-65" vertex="1">
                    <mxGeometry x="83" y="120" width="120" height="60" as="geometry"/>
                </mxCell>
                <mxCell id="geomr1CJVptTWvtlSGP4-81" value="Keycloak" style="rounded=1;whiteSpace=wrap;html=1;" parent="geomr1CJVptTWvtlSGP4-65" vertex="1">
                    <mxGeometry x="220" y="30" width="120" height="50" as="geometry"/>
                </mxCell>
                <mxCell id="geomr1CJVptTWvtlSGP4-82" style="rounded=0;orthogonalLoop=1;jettySize=auto;html=1;exitX=0.5;exitY=1;exitDx=0;exitDy=0;entryX=0.5;entryY=0;entryDx=0;entryDy=0;startArrow=classic;startFill=1;" parent="geomr1CJVptTWvtlSGP4-65" source="geomr1CJVptTWvtlSGP4-83" target="geomr1CJVptTWvtlSGP4-73" edge="1">
                    <mxGeometry relative="1" as="geometry"/>
                </mxCell>
                <mxCell id="geomr1CJVptTWvtlSGP4-83" value="Kong Proxy" style="rounded=1;whiteSpace=wrap;html=1;" parent="geomr1CJVptTWvtlSGP4-65" vertex="1">
                    <mxGeometry x="50" y="30" width="120" height="50" as="geometry"/>
                </mxCell>
                <mxCell id="78" value="APISIX Proxy" style="rounded=1;whiteSpace=wrap;html=1;" parent="geomr1CJVptTWvtlSGP4-65" vertex="1">
                    <mxGeometry x="230" y="110" width="120" height="50" as="geometry"/>
                </mxCell>
                <mxCell id="20" value="Local" style="swimlane;horizontal=0;whiteSpace=wrap;html=1;" parent="1" vertex="1">
                    <mxGeometry x="-1147" y="90" width="360" height="190" as="geometry"/>
                </mxCell>
                <mxCell id="27" value="Orion-LD" style="rounded=1;whiteSpace=wrap;html=1;" parent="20" vertex="1">
                    <mxGeometry x="70" y="20" width="120" height="60" as="geometry"/>
                </mxCell>
                <mxCell id="30" value="Keycloak" style="rounded=1;whiteSpace=wrap;html=1;" parent="20" vertex="1">
                    <mxGeometry x="220" y="20" width="120" height="50" as="geometry"/>
                </mxCell>
                <mxCell id="31" style="rounded=0;orthogonalLoop=1;jettySize=auto;html=1;exitX=0.5;exitY=0;exitDx=0;exitDy=0;entryX=0.25;entryY=1;entryDx=0;entryDy=0;startArrow=classic;startFill=1;" parent="20" source="32" target="27" edge="1">
                    <mxGeometry relative="1" as="geometry"/>
                </mxCell>
                <mxCell id="32" value="Kong Proxy" style="rounded=1;whiteSpace=wrap;html=1;" parent="20" vertex="1">
                    <mxGeometry x="47" y="120" width="120" height="50" as="geometry"/>
                </mxCell>
                <mxCell id="37" style="edgeStyle=none;html=1;exitX=0.75;exitY=0;exitDx=0;exitDy=0;startArrow=classic;startFill=1;" parent="1" source="27" target="geomr1CJVptTWvtlSGP4-73" edge="1">
                    <mxGeometry relative="1" as="geometry"/>
                </mxCell>
                <mxCell id="40" value="Private VPN based on WireGaurd Netbird (self-hosted or asService)" style="text;html=1;strokeColor=none;fillColor=none;align=center;verticalAlign=middle;whiteSpace=wrap;rounded=0;" parent="1" vertex="1">
                    <mxGeometry x="-977" y="40" width="200" height="30" as="geometry"/>
                </mxCell>
                <mxCell id="43" value="ED SaaS or Local" style="swimlane;horizontal=0;whiteSpace=wrap;html=1;" parent="1" vertex="1">
                    <mxGeometry x="-610" y="-170" width="360" height="190" as="geometry"/>
                </mxCell>
                <mxCell id="44" value="Orion-LD" style="rounded=1;whiteSpace=wrap;html=1;" parent="43" vertex="1">
                    <mxGeometry x="83" y="120" width="120" height="60" as="geometry"/>
                </mxCell>
                <mxCell id="45" value="Keycloak" style="rounded=1;whiteSpace=wrap;html=1;" parent="43" vertex="1">
                    <mxGeometry x="210" y="10" width="120" height="50" as="geometry"/>
                </mxCell>
                <mxCell id="46" style="rounded=0;orthogonalLoop=1;jettySize=auto;html=1;exitX=0.5;exitY=1;exitDx=0;exitDy=0;entryX=0.5;entryY=0;entryDx=0;entryDy=0;startArrow=classic;startFill=1;" parent="43" source="47" target="44" edge="1">
                    <mxGeometry relative="1" as="geometry"/>
                </mxCell>
                <mxCell id="47" value="Kong Proxy" style="rounded=1;whiteSpace=wrap;html=1;" parent="43" vertex="1">
                    <mxGeometry x="50" y="30" width="120" height="50" as="geometry"/>
                </mxCell>
                <mxCell id="48" value="Local" style="swimlane;horizontal=0;whiteSpace=wrap;html=1;" parent="1" vertex="1">
                    <mxGeometry x="-610" y="100" width="360" height="190" as="geometry"/>
                </mxCell>
                <mxCell id="49" value="Orion-LD" style="rounded=1;whiteSpace=wrap;html=1;" parent="48" vertex="1">
                    <mxGeometry x="70" y="20" width="120" height="60" as="geometry"/>
                </mxCell>
                <mxCell id="50" value="Keycloak" style="rounded=1;whiteSpace=wrap;html=1;" parent="48" vertex="1">
                    <mxGeometry x="220" y="20" width="120" height="50" as="geometry"/>
                </mxCell>
                <mxCell id="51" style="rounded=0;orthogonalLoop=1;jettySize=auto;html=1;exitX=0.5;exitY=0;exitDx=0;exitDy=0;entryX=0.25;entryY=1;entryDx=0;entryDy=0;startArrow=classic;startFill=1;" parent="48" source="52" target="49" edge="1">
                    <mxGeometry relative="1" as="geometry"/>
                </mxCell>
                <mxCell id="52" value="Kong Proxy" style="rounded=1;whiteSpace=wrap;html=1;" parent="48" vertex="1">
                    <mxGeometry x="50" y="104.5" width="120" height="50" as="geometry"/>
                </mxCell>
                <mxCell id="53" style="edgeStyle=none;html=1;exitX=0.5;exitY=1;exitDx=0;exitDy=0;startArrow=classic;startFill=1;" parent="1" source="44" target="49" edge="1">
                    <mxGeometry relative="1" as="geometry"/>
                </mxCell>
                <mxCell id="54" value="via ED firewall&lt;br&gt;partners need to have STATIC IP" style="text;html=1;strokeColor=none;fillColor=none;align=center;verticalAlign=middle;whiteSpace=wrap;rounded=0;" parent="1" vertex="1">
                    <mxGeometry x="-437" y="30" width="197" height="50" as="geometry"/>
                </mxCell>
                <mxCell id="55" value="ED SaaS" style="swimlane;horizontal=0;whiteSpace=wrap;html=1;" parent="1" vertex="1">
                    <mxGeometry x="-100" y="-170" width="360" height="190" as="geometry"/>
                </mxCell>
                <mxCell id="56" value="Orion-LD" style="rounded=1;whiteSpace=wrap;html=1;" parent="55" vertex="1">
                    <mxGeometry x="40" y="110" width="120" height="60" as="geometry"/>
                </mxCell>
                <mxCell id="57" value="Keycloak" style="rounded=1;whiteSpace=wrap;html=1;" parent="55" vertex="1">
                    <mxGeometry x="190" y="10" width="120" height="50" as="geometry"/>
                </mxCell>
                <mxCell id="58" style="rounded=0;orthogonalLoop=1;jettySize=auto;html=1;exitX=0.5;exitY=1;exitDx=0;exitDy=0;entryX=0.5;entryY=0;entryDx=0;entryDy=0;startArrow=classic;startFill=1;" parent="55" source="59" target="56" edge="1">
                    <mxGeometry relative="1" as="geometry"/>
                </mxCell>
                <mxCell id="59" value="Kong Proxy" style="rounded=1;whiteSpace=wrap;html=1;" parent="55" vertex="1">
                    <mxGeometry x="30" y="10" width="120" height="50" as="geometry"/>
                </mxCell>
                <mxCell id="60" value="Local" style="swimlane;horizontal=0;whiteSpace=wrap;html=1;" parent="1" vertex="1">
                    <mxGeometry x="-100" y="50" width="417" height="240" as="geometry"/>
                </mxCell>
                <mxCell id="61" value="Orion-LD" style="rounded=1;whiteSpace=wrap;html=1;" parent="60" vertex="1">
                    <mxGeometry x="50" y="130" width="120" height="60" as="geometry"/>
                </mxCell>
                <mxCell id="62" value="Keycloak" style="rounded=1;whiteSpace=wrap;html=1;" parent="60" vertex="1">
                    <mxGeometry x="250" y="70" width="120" height="50" as="geometry"/>
                </mxCell>
                <mxCell id="63" style="rounded=0;orthogonalLoop=1;jettySize=auto;html=1;exitX=0;exitY=0.25;exitDx=0;exitDy=0;entryX=1;entryY=0.75;entryDx=0;entryDy=0;startArrow=classic;startFill=1;" parent="60" source="64" target="61" edge="1">
                    <mxGeometry relative="1" as="geometry"/>
                </mxCell>
                <mxCell id="64" value="Kong Proxy" style="rounded=1;whiteSpace=wrap;html=1;" parent="60" vertex="1">
                    <mxGeometry x="260" y="180" width="120" height="50" as="geometry"/>
                </mxCell>
                <mxCell id="69" style="edgeStyle=none;html=1;exitX=0.5;exitY=1;exitDx=0;exitDy=0;entryX=0.5;entryY=0;entryDx=0;entryDy=0;startArrow=classic;startFill=1;" parent="60" source="72" target="61" edge="1">
                    <mxGeometry relative="1" as="geometry"/>
                </mxCell>
                <mxCell id="67" value="envoy" style="rounded=1;whiteSpace=wrap;html=1;" parent="60" vertex="1">
                    <mxGeometry x="177" y="15" width="70" height="40" as="geometry"/>
                </mxCell>
                <mxCell id="71" value="Add authedication + TLS" style="text;html=1;strokeColor=none;fillColor=none;align=center;verticalAlign=middle;whiteSpace=wrap;rounded=0;" parent="60" vertex="1">
                    <mxGeometry x="247" y="15" width="170" height="30" as="geometry"/>
                </mxCell>
                <mxCell id="79" style="edgeStyle=none;html=1;exitX=1;exitY=0;exitDx=0;exitDy=0;entryX=0;entryY=0.75;entryDx=0;entryDy=0;" parent="60" source="72" target="67" edge="1">
                    <mxGeometry relative="1" as="geometry"/>
                </mxCell>
                <mxCell id="72" value="appolo" style="rounded=1;whiteSpace=wrap;html=1;" parent="60" vertex="1">
                    <mxGeometry x="50" y="60" width="100" height="40" as="geometry"/>
                </mxCell>
                <mxCell id="65" style="edgeStyle=none;html=1;startArrow=classic;startFill=1;" parent="1" source="56" target="67" edge="1">
                    <mxGeometry relative="1" as="geometry"/>
                </mxCell>
                <mxCell id="74" value="Partner needs to create a registration&amp;nbsp;" style="text;html=1;strokeColor=none;fillColor=none;align=center;verticalAlign=middle;whiteSpace=wrap;rounded=0;" parent="1" vertex="1">
                    <mxGeometry x="10" y="-240" width="197" height="30" as="geometry"/>
                </mxCell>
                <mxCell id="75" value="Partner needs to create a context registration&amp;nbsp;" style="text;html=1;strokeColor=none;fillColor=none;align=center;verticalAlign=middle;whiteSpace=wrap;rounded=0;" parent="1" vertex="1">
                    <mxGeometry x="-490" y="-240" width="197" height="30" as="geometry"/>
                </mxCell>
                <mxCell id="77" value="Partner needs to create a context registration&amp;nbsp;" style="text;html=1;strokeColor=none;fillColor=none;align=center;verticalAlign=middle;whiteSpace=wrap;rounded=0;" parent="1" vertex="1">
                    <mxGeometry x="-1060" y="-230" width="197" height="30" as="geometry"/>
                </mxCell>
                <mxCell id="80" value="ED SaaS" style="swimlane;horizontal=0;whiteSpace=wrap;html=1;" parent="1" vertex="1">
                    <mxGeometry x="390" y="-160" width="370" height="190" as="geometry"/>
                </mxCell>
                <mxCell id="81" value="Orion-LD" style="rounded=1;whiteSpace=wrap;html=1;" parent="80" vertex="1">
                    <mxGeometry x="70" y="10" width="120" height="90" as="geometry"/>
                </mxCell>
                <mxCell id="82" value="Keycloak" style="rounded=1;whiteSpace=wrap;html=1;" parent="80" vertex="1">
                    <mxGeometry x="230" y="20" width="120" height="50" as="geometry"/>
                </mxCell>
                <mxCell id="83" style="rounded=0;orthogonalLoop=1;jettySize=auto;html=1;exitX=0.5;exitY=1;exitDx=0;exitDy=0;entryX=0.5;entryY=1;entryDx=0;entryDy=0;startArrow=classic;startFill=1;" parent="80" source="84" target="81" edge="1">
                    <mxGeometry relative="1" as="geometry"/>
                </mxCell>
                <mxCell id="84" value="Kong Proxy" style="rounded=1;whiteSpace=wrap;html=1;" parent="80" vertex="1">
                    <mxGeometry x="90" y="120" width="120" height="50" as="geometry"/>
                </mxCell>
                <mxCell id="85" value="Local" style="swimlane;horizontal=0;whiteSpace=wrap;html=1;" parent="1" vertex="1">
                    <mxGeometry x="380" y="70" width="370" height="220" as="geometry"/>
                </mxCell>
                <mxCell id="86" value="Orion-LD" style="rounded=1;whiteSpace=wrap;html=1;" parent="85" vertex="1">
                    <mxGeometry x="50" y="110" width="120" height="60" as="geometry"/>
                </mxCell>
                <mxCell id="87" value="Keycloak" style="rounded=1;whiteSpace=wrap;html=1;" parent="85" vertex="1">
                    <mxGeometry x="200" y="60" width="120" height="50" as="geometry"/>
                </mxCell>
                <mxCell id="88" style="rounded=0;orthogonalLoop=1;jettySize=auto;html=1;exitX=0;exitY=0.25;exitDx=0;exitDy=0;entryX=1;entryY=0.75;entryDx=0;entryDy=0;startArrow=classic;startFill=1;" parent="85" source="89" target="86" edge="1">
                    <mxGeometry relative="1" as="geometry"/>
                </mxCell>
                <mxCell id="89" value="Kong Proxy" style="rounded=1;whiteSpace=wrap;html=1;" parent="85" vertex="1">
                    <mxGeometry x="210" y="150" width="120" height="50" as="geometry"/>
                </mxCell>
                <mxCell id="90" style="edgeStyle=none;html=1;exitX=0.5;exitY=1;exitDx=0;exitDy=0;entryX=0.5;entryY=0;entryDx=0;entryDy=0;startArrow=classic;startFill=1;" parent="85" source="94" target="86" edge="1">
                    <mxGeometry relative="1" as="geometry"/>
                </mxCell>
                <mxCell id="92" value="Add authedication + TLS" style="text;html=1;strokeColor=none;fillColor=none;align=center;verticalAlign=middle;whiteSpace=wrap;rounded=0;" parent="85" vertex="1">
                    <mxGeometry x="200" y="15" width="170" height="30" as="geometry"/>
                </mxCell>
                <mxCell id="94" value="circuloos-registration-to-entities" style="rounded=1;whiteSpace=wrap;html=1;" parent="85" vertex="1">
                    <mxGeometry x="50" y="20" width="130" height="60" as="geometry"/>
                </mxCell>
                <mxCell id="96" value="Partner needs to create a registration&amp;nbsp;" style="text;html=1;strokeColor=none;fillColor=none;align=center;verticalAlign=middle;whiteSpace=wrap;rounded=0;" parent="1" vertex="1">
                    <mxGeometry x="490" y="-220" width="197" height="30" as="geometry"/>
                </mxCell>
                <mxCell id="93" style="edgeStyle=none;html=1;exitX=0.43;exitY=-0.075;exitDx=0;exitDy=0;exitPerimeter=0;" parent="1" source="94" target="84" edge="1">
                    <mxGeometry relative="1" as="geometry">
                        <mxPoint x="557" y="115" as="targetPoint"/>
                    </mxGeometry>
                </mxCell>
                <mxCell id="97" value="Apollo + envoy do not play well together . Apollo require lot of back and forthe with Orion-LD and envooy cannot cope with it" style="text;html=1;strokeColor=none;fillColor=none;align=center;verticalAlign=middle;whiteSpace=wrap;rounded=0;" parent="1" vertex="1">
                    <mxGeometry x="-10" y="300" width="250" height="30" as="geometry"/>
                </mxCell>
            </root>
        </mxGraphModel>
    </diagram>
</mxfile>